<svg width="114" height="20" viewBox="0 0 114 20" fill="none" xmlns="http://www.w3.org/2000/svg">
<g clip-path="url(#clip0_108_50)">
<path d="M105.996 20V11.0547H103V7.5H105.996V4.69922C105.996 1.65625 107.855 0 110.57 0C111.871 0 112.988 0.0976562 113.312 0.140625V3.32031H111.43C109.953 3.32031 109.668 4.02344 109.668 5.05078V7.5H113L112.543 11.0547H109.668V20" fill="#AD4C4C"/>
</g>
<path d="M17.9441 5.92638C17.9568 6.10403 17.9568 6.28173 17.9568 6.45938C17.9568 11.8781 13.8325 18.1218 6.29441 18.1218C3.97207 18.1218 1.81473 17.4492 0 16.2817C0.329961 16.3198 0.647187 16.3325 0.989844 16.3325C2.90605 16.3325 4.67004 15.6853 6.07867 14.5812C4.27664 14.5431 2.76648 13.3629 2.24617 11.7386C2.5 11.7766 2.75379 11.802 3.02031 11.802C3.38832 11.802 3.75637 11.7512 4.09898 11.6624C2.22082 11.2817 0.812148 9.63196 0.812148 7.63958V7.58884C1.35781 7.89341 1.99238 8.08376 2.66492 8.10911C1.56086 7.37306 0.837539 6.11673 0.837539 4.6954C0.837539 3.93399 1.04055 3.23603 1.3959 2.62688C3.41367 5.11419 6.44668 6.73853 9.84766 6.91622C9.78422 6.61165 9.74613 6.29442 9.74613 5.97716C9.74613 3.71825 11.5736 1.87817 13.8451 1.87817C15.0253 1.87817 16.0913 2.3731 16.84 3.17259C17.7664 2.99493 18.6547 2.65228 19.4416 2.18274C19.137 3.13454 18.4898 3.93403 17.6395 4.44161C18.4644 4.35282 19.2639 4.12435 19.9999 3.80712C19.4416 4.61927 18.7436 5.34259 17.9441 5.92638Z" fill="#AD4C4C"/>
<path d="M71.4709 4.84699C71.2256 3.92316 70.5027 3.19559 69.5848 2.94867C67.9211 2.5 61.25 2.5 61.25 2.5C61.25 2.5 54.5789 2.5 52.9152 2.94867C51.9973 3.19563 51.2744 3.92316 51.0291 4.84699C50.5833 6.52148 50.5833 10.0152 50.5833 10.0152C50.5833 10.0152 50.5833 13.5088 51.0291 15.1833C51.2744 16.1071 51.9973 16.8044 52.9152 17.0513C54.5789 17.5 61.25 17.5 61.25 17.5C61.25 17.5 67.9211 17.5 69.5848 17.0513C70.5027 16.8044 71.2256 16.1071 71.4709 15.1833C71.9167 13.5088 71.9167 10.0152 71.9167 10.0152C71.9167 10.0152 71.9167 6.52148 71.4709 4.84699ZM59.0682 13.1871V6.84316L64.6439 10.0152L59.0682 13.1871Z" fill="#AD4C4C"/>
<defs>
<clipPath id="clip0_108_50">
<rect width="10.3125" height="20" fill="white" transform="translate(103)"/>
</clipPath>
</defs>
</svg>
